<?xml version="1.0" encoding="utf-8"?>
<!-- Generator: Adobe Illustrator 27.5.0, SVG Export Plug-In . SVG Version: 6.00 Build 0)  -->
<svg version="1.1" xmlns="http://www.w3.org/2000/svg" xmlns:xlink="http://www.w3.org/1999/xlink" x="0px" y="0px"
	 viewBox="0 0 800 800" style="enable-background:new 0 0 800 800;" xml:space="preserve">
<g id="Layer_2">
</g>
<g id="Layer_4">
</g>
<g id="Layer_3">
	<g id="XMLID_544_">
		<circle style="fill:#4B2A1C;" cx="400" cy="400" r="287.986"/>
		<g id="XMLID_3_">
			<g id="XMLID_4_">
				<path id="XMLID_73_" style="fill:#FFFFFF;" d="M217.081,513.998v-45.255h2.765v-21.66h-12.812l-39.356,21.014v3.595l0.983-0.465
					v47.563L217.081,513.998z M203.347,454.818l3.687-1.744v58.711l-3.687,0.585V454.818z M197.111,457.769l3.502-1.657v56.692
					l-3.502,0.556V457.769z M190.751,460.777l3.933-1.86v54.828l-3.933,0.624V460.777z M184.299,463.829l4.24-2.006v52.819h0.486
					l-4.726,0.75V463.829z M177.632,466.983l4.455-2.107v50.658h1.322l-5.777,0.916V466.983z M170.873,470.181l4.547-2.151v48.772
					l-4.547,0.721V470.181z"/>
				<polygon id="XMLID_88_" style="fill:#FFFFFF;" points="173.946,463.858 202.794,448.097 202.794,431.414 172.655,454.088 
					172.655,459.434 174.038,459.434 				"/>
				<rect id="XMLID_89_" x="204.177" y="431.414" style="fill:#FFFFFF;" width="15.669" height="13.871"/>
				<polygon id="XMLID_90_" style="fill:#FFFFFF;" points="359.02,476.301 358.467,462.291 268.695,478.144 268.695,489.02 
					280.308,487.384 280.308,480.356 301.876,477.038 301.876,484.347 311.461,482.998 311.461,475.166 336.347,471.337 
					336.347,479.493 				"/>
				<path id="XMLID_91_" style="fill:#FFFFFF;" d="M548.151,423.088c0-17.986-12.545-32.566-28.019-32.566
					c-14.787,0-26.891,13.317-27.937,30.194c4.534-10.887,14.129-18.396,25.234-18.396c15.475,0,28.019,14.58,28.019,32.566
					c0,0.799-0.033,1.588-0.082,2.373C547.15,432.974,548.151,428.168,548.151,423.088z"/>
				<path id="XMLID_94_" style="fill:#FFFFFF;" d="M616.356,519.067v-30.231h-30.231v-33.549h-7.005h-11.905
					c4.302-9.464,6.743-20.17,6.743-31.522c0-36.761-25.443-66.835-57.645-69.311c2.752-3.057,4.925-7.916,4.925-15.669
					c0-21.199-14.87-24.701-14.87-24.701c-6.22,0-11.151,1.15-15.054,2.836v-2.037c0,0-3.452-2.871-9.647-5.406v-48.359
					c4.056,0,7.25-7.251,7.25-7.251v-15.73c0,0-5.899-9.831-25.807-9.831c-19.908,0-27.527,7.62-27.527,7.62s0,12.78,0,17.205
					c0,4.424,5.899,8.603,5.899,8.603v48.353c-4.721,2.663-5.715,5.535-5.715,5.535v44.276c-2.483-2.843-8.743-8.576-18.864-8.576
					c-2.19,0-4.233,0.23-6.145,0.59v-7.349c0,0-12.289-10.323-32.443-9.094c-20.154,1.229-23.103,9.831-23.103,9.831v64.084
					l-19.814,7.775l-5.01,1.966v-1.81c0,0-20.322-2.92-33.929-3.892c-20.766-1.483-51.849,1.435-51.849,1.435v72.23h4.424
					c0-11.828,2.458-13.733,2.458-13.733l14.256-1.659c0-19.11,9.832-29.31,9.832-29.31l23.498-8.994l172.614-62.343
					c-2,1.928-3.898,3.987-5.664,6.184l-186.885,68.057l-2.704,4.427l181.301-59.425c-4.875,9.93-7.655,21.337-7.655,33.476
					c0,1.295,0.037,2.579,0.1,3.856l-181.856,41.06v6.882l184.231-32.36c1.09,4.207,2.525,8.246,4.269,12.082h-51.722l-9.033,1.481
					v67.461c0,0,1.985,10.846,13.011,16.222h-4.347c0,0-3.317-1.518-7.685-3.714c-2.46-1.237-5.249-2.687-7.978-4.21
					c-1.828-1.02-3.621-2.07-5.268-3.106c-1.805-1.136-3.433-2.256-4.715-3.301c-1.359-1.106-2.337-2.129-2.742-2.996
					c-0.251-0.539-0.528-1.57-0.822-2.972c-0.27-1.292-0.555-2.896-0.849-4.758c-0.355-2.25-0.724-4.873-1.096-7.707
					c-0.172-1.309-0.344-2.654-0.516-4.045c-2.25-18.162-4.459-42.179-4.459-42.179l-7.225,1.075c0,0,2.667,25.621,5.853,44.787
					c-4.897,4.988-8.678,14.207-10.347,25.461c-0.176-1.076-0.37-2.115-0.584-3.105c0.839-4.494,3.182-15.269,7.203-20.751
					l-0.94-6.133l-115.991,3.244v7.7h12.904l3.072,18.231h1.207c0,0,2.288-17.503,10.863-19.689l0.014,0.002
					c-6.177,2.828-10.817,14.591-10.871,28.72h-10.184v-23.964h-8.848v-8.295l-2.765,0.184v9.954h3.134v30.047h19.141
					c1.572,12.63,6.905,21.942,13.261,21.942h6.398c0,0,6.032-4.305,8.121-18.989c1.807,13.614,7.62,23.583,14.517,23.583h7.03
					c0,0,6.197-4.423,8.683-19.303c2.097,15.416,8.704,26.679,16.535,26.679h8.023c0,0,7.52-5.366,10.16-23.651
					c2.616,16.818,9.982,28.941,18.666,28.941h9.165c0,0,12.645-8.995,12.645-42.431c0-0.193-0.007-0.374-0.008-0.565
					c3.25,1.473,5.455,2.32,5.455,2.32h53.837l-1.24,13.99l-52.966-2.07l-1.352,7.619l12.7,1.292
					c2.094,3.773,7.062,10.875,14.828,10.875c6.801,0,11.604-4.622,14.173-7.924l11.645,1.185l-1.731,19.535l128.669,25.3
					l21.686-35.42l-20.869-44.094c6.414,0,16.957,0,24.313,0C617.83,537.743,616.356,519.067,616.356,519.067z M269.678,445.286
					h-16.468v-23.795h16.468V445.286z M294.257,430.093l-20.83,6.636v-15.238h20.83V430.093z M311.738,424.041l-11.705,4.148v-6.698
					h11.705V424.041z M314.503,423.672v-2.181h7.001L314.503,423.672z M409.283,345.544v1.889
					c-20.624-8.284-45.961-2.38-45.961-2.38C387.654,329.076,409.283,345.544,409.283,345.544z M409.283,348.935v3.283
					c-8.95,2.104-14.317,7.213-14.317,7.213v21.789l-3.318,1.354V344.85C401.357,345.831,408.335,348.55,409.283,348.935z
					 M374.689,401.739l-3.878,1.521l-0.178-57.102c1.362-0.334,2.715-0.607,4.055-0.832V401.739z M388.146,396.459l-6.821,2.676
					v-54.538c2.358-0.128,4.641-0.119,6.821-0.009V396.459z M435.521,377.87l-43.872,17.215v-7.137l43.872-16.098V377.87z
					 M435.521,364.667l-21.752,8.878v-18.723c0,0,11.245-3.318,21.752,7.189V364.667z M346.815,510.373l0.001,0.002
					c-0.001-0.001-0.002-0.002-0.003-0.003L346.815,510.373z M276.377,567.808c-5.057,0-9.328-7.957-10.717-18.878h1.097
					c1.332,8.048,4.685,13.771,8.622,13.771c5.104,0,9.242-9.604,9.242-21.451c0-11.847-4.138-21.451-9.242-21.451
					c-5.068,0-9.179,9.472-9.237,21.204h-0.956c0.056-14.553,5.043-26.311,11.192-26.311c6.184,0,11.197,11.89,11.197,26.558
					C287.574,555.917,282.561,567.808,276.377,567.808z M267.119,542.647c-0.013-0.463-0.028-0.925-0.028-1.397
					c0-10.621,3.371-19.231,7.529-19.231c4.158,0,7.529,8.61,7.529,19.231c0,10.621-3.371,19.232-7.529,19.232
					c-3.088,0-5.74-4.755-6.901-11.552h0.422L267.119,542.647z M291.837,530.348c1.006-5.28,4.192-17.331,12.556-19.643
					c-5.733,1.758-10.425,10.452-12.195,22.014C292.091,531.901,291.971,531.11,291.837,530.348z M305.302,572.099
					c-6.794,0-12.303-13.064-12.303-29.18c0-16.116,5.508-29.18,12.303-29.18s12.303,13.064,12.303,29.18
					C317.605,559.035,312.097,572.099,305.302,572.099z M322.039,529.62c1.07-4.877,4.158-15.285,11.561-19.346
					c-5.096,3.462-9.17,11.888-11,22.649C322.438,531.769,322.25,530.668,322.039,529.62z M337.376,579
					c-7.754,0-14.039-14.909-14.039-33.299c0-18.391,6.286-33.299,14.039-33.299c7.754,0,14.039,14.908,14.039,33.299
					C351.415,564.091,345.129,579,337.376,579z M371.371,525.703c1.543,3.827,5.59,7.527,10.287,10.76
					c0.404,2.891,0.635,5.992,0.635,9.237c0,15.214-4.829,27.547-10.785,27.547c-5.956,0-10.785-12.334-10.785-27.547
					c0-13.362,3.725-24.495,8.667-27.009C370.054,521.653,370.721,524.089,371.371,525.703z M374.024,583.742
					c-8.858,0-16.039-17.032-16.039-38.042c0-15.775,4.049-29.306,9.815-35.07c0.351,1.982,0.706,3.857,1.064,5.602
					c-5.494,3.74-9.509,15.507-9.509,29.469c0,16.969,5.927,30.726,13.238,30.726c7.312,0,13.239-13.756,13.239-30.726
					c0-2.33-0.122-4.59-0.333-6.771c1.491,0.898,2.994,1.745,4.463,2.53c0.065,1.393,0.102,2.807,0.102,4.242
					C390.063,566.711,382.882,583.742,374.024,583.742z M579.119,464.503v24.333h-45.334c11.475-4.834,21.324-13.38,28.402-24.333
					H579.119z M520.217,456.767c-16.699,0-30.236-15.189-30.236-33.926c0-18.737,13.537-33.926,30.236-33.926
					c16.699,0,30.236,15.189,30.236,33.926C550.453,441.578,536.916,456.767,520.217,456.767z M502.56,317.133
					c4.028,1.171,16.834,6.116,16.834,21.652c0,7.575-2.429,12.438-5.289,15.543c-0.028-0.001-0.056-0.001-0.084-0.002
					c2.267-4.809,10.253-25.032-9.654-36.187l-1.951-0.852C502.463,317.239,502.513,317.18,502.56,317.133z M497.803,323.69
					c4.107,0.659,12.374,3.433,12.374,15.095c0,8.29-3.307,12.831-6.852,15.283c-2.519-1.223-4.982-3.095-6.693-5.97
					c0.233,0.034,0.462,0.089,0.703,0.089c3.326,0,6.022-3.384,6.022-7.558c0-4.174-2.696-7.558-6.022-7.558
					c-0.962,0-1.859,0.309-2.665,0.813C495.213,329.787,496.382,326.412,497.803,323.69z M479.7,260.38v48.341
					c-0.691-0.249-1.401-0.491-2.148-0.723h0.035V252.2c2.925,0.363,6.048,0.89,9.241,1.666
					C486.828,253.867,484.37,258.414,479.7,260.38z M460.222,232.109c8.246-0.459,18.106,0.715,26.729,6.519v12.904
					c0,0-11.611-2.881-26.729-2.329V232.109z M467.78,251.5v54.507c-2.24-0.239-4.618-0.338-7.128-0.267v-54.085
					C460.652,251.654,463.436,251.415,467.78,251.5z M442.464,235.679c0,0,5.597-2.199,13.518-3.19v16.959
					c-4.352,0.343-8.913,0.989-13.518,2.084V235.679z M455.245,370.13l-3.884,1.524l-0.172-55.174
					c1.362-0.335,2.715-0.607,4.055-0.832V370.13z M468.701,364.85l-6.82,2.676v-52.608c2.358-0.128,4.641-0.119,6.82-0.009V364.85z
					 M443.877,315.374c24.332-15.976,45.961,0.491,45.961,0.491v1.739c-0.057,0.028-0.115,0.056-0.171,0.085
					C469.075,309.505,443.877,315.374,443.877,315.374z M488.021,318.585c-8.201,4.876-10.434,11.966-10.434,11.966v30.813
					l-5.383,2.112v-48.304C479.458,315.904,485.189,317.608,488.021,318.585z M513.495,361.301c16.966,0,32.106,8.753,42.043,22.448
					c0.807,6.315,3.502,32.017-3.006,51.008c0.917-3.486,1.418-7.173,1.418-10.992c0-21.413-15.471-38.772-34.556-38.772
					c-19.085,0-34.556,17.359-34.556,38.772c0,16.107,8.754,29.916,21.214,35.773c-14.59-1.137-30.452-6.668-43.812-17.676
					c-1.896-6.195-2.94-12.835-2.94-19.752C459.3,388.526,483.564,361.301,513.495,361.301z M405.105,464.503h56.75
					c7.078,10.953,16.927,19.498,28.402,24.333h-69.205l-15.947,1.817C405.105,480.779,405.105,471.201,405.105,464.503z
					 M597.359,582.56l-18.794,28.191l-114.212-23.854l0.361-47.553l5.216,0.083l1.412,45.019l9.218,0.883l-0.553-45.309
					l4.798,46.334l4.174,0.716l5.493,0.549l-4.337-47.468l10.149,48.859l11.392,1.956l-7.566-51.779l12.519,52.629l10.428,1.79
					l-9.936-53.937l15.624,54.914l9.622,1.652l-13.68-56.806l17.877,57.527l11.402,1.958l-16.267-59.725l20.943,60.528l9.64,1.655
					l-18.054-61.701l22.942,61.417l6.424-8.219l-19.004-54.161l21.482,50.99l5.898-7.547l-18.419-44.382l2.123-0.026L597.359,582.56
					z M611.747,519.251c0,13.641-6.636,15.238-6.636,15.238h-38.526l0.128,0.041l-108.865,0.32h-11.082l-3.687,5.599h-12.504
					c-11.593-1.224-25.469-5.15-25.469-16.959c0-7.158,0-17.762,0-28.486l15.947-1.745h190.696
					C611.747,493.26,611.747,505.61,611.747,519.251z"/>
				<path id="XMLID_180_" style="fill:#FFFFFF;" d="M243.748,407.235l-27.773,19.171v2.335l27.282-16.345
					c0,0,30.17-2.826,50.133-2.335c18.94,0.466,42.006,7.095,42.006,7.095l0-7.06C335.397,410.097,292.044,400.108,243.748,407.235z
					"/>
				<rect id="XMLID_181_" x="427.963" y="501.371" style="fill:#FFFFFF;" width="178.439" height="14.01"/>
				<path id="XMLID_184_" style="fill:#FFFFFF;" d="M179.633,527.152c-2.594,0-4.697,4.881-4.697,10.901
					c0,6.021,2.103,10.901,4.697,10.901c2.594,0,4.697-4.881,4.697-10.901C184.329,532.033,182.227,527.152,179.633,527.152z
					 M179.248,547.827c-2.113,0-3.826-4.376-3.826-9.774c0-5.398,1.713-9.773,3.826-9.773c2.113,0,3.826,4.376,3.826,9.773
					C183.074,543.451,181.361,547.827,179.248,547.827z"/>
				<path id="XMLID_185_" style="fill:#FFFFFF;" d="M179.248,537.978c0,2.07,0.543,3.749,1.214,3.749s1.214-1.678,1.214-3.749
					c0-2.07-0.543-3.748-1.214-3.748S179.248,535.908,179.248,537.978z"/>
				<path id="XMLID_188_" style="fill:#FFFFFF;" d="M194.72,526.925c-2.85,0-5.161,5.362-5.161,11.978
					c0,6.615,2.311,11.978,5.161,11.978s5.161-5.363,5.161-11.978C199.88,532.287,197.57,526.925,194.72,526.925z M194.297,549.641
					c-2.322,0-4.204-4.808-4.204-10.738c0-5.931,1.882-10.738,4.204-10.738c2.322,0,4.204,4.807,4.204,10.738
					C198.501,544.833,196.619,549.641,194.297,549.641z"/>
				<path id="XMLID_189_" style="fill:#FFFFFF;" d="M194.297,538.819c0,2.275,0.597,4.119,1.334,4.119
					c0.736,0,1.334-1.844,1.334-4.119c0-2.274-0.597-4.118-1.334-4.118C194.894,534.701,194.297,536.545,194.297,538.819z"/>
				<path id="XMLID_192_" style="fill:#FFFFFF;" d="M210.941,526.647c-3.253,0-5.889,6.12-5.889,13.668
					c0,7.549,2.637,13.668,5.889,13.668c3.252,0,5.889-6.12,5.889-13.668C216.83,532.767,214.193,526.647,210.941,526.647z
					 M210.459,552.57c-2.65,0-4.798-5.487-4.798-12.254c0-6.768,2.148-12.254,4.798-12.254c2.649,0,4.798,5.486,4.798,12.254
					C215.256,547.083,213.108,552.57,210.459,552.57z"/>
				<path id="XMLID_193_" style="fill:#FFFFFF;" d="M210.459,540.221c0,2.596,0.681,4.7,1.522,4.7c0.841,0,1.522-2.104,1.522-4.7
					c0-2.596-0.681-4.7-1.522-4.7C211.14,535.521,210.459,537.625,210.459,540.221z"/>
				<path id="XMLID_196_" style="fill:#FFFFFF;" d="M229.693,524.7c-3.716,0-6.728,6.991-6.728,15.615
					c0,8.624,3.012,15.615,6.728,15.615c3.716,0,6.728-6.991,6.728-15.615C236.421,531.692,233.409,524.7,229.693,524.7z
					 M229.142,554.315c-3.027,0-5.481-6.268-5.481-14c0-7.732,2.454-14,5.481-14c3.027,0,5.481,6.268,5.481,14
					C234.623,548.047,232.169,554.315,229.142,554.315z"/>
				<path id="XMLID_197_" style="fill:#FFFFFF;" d="M229.142,540.208c0,2.965,0.778,5.369,1.739,5.369
					c0.96,0,1.739-2.404,1.739-5.369c0-2.966-0.779-5.37-1.739-5.37C229.921,534.838,229.142,537.242,229.142,540.208z"/>
				<ellipse id="XMLID_198_" style="fill:#FFFFFF;" cx="277.01" cy="541.102" rx="2.389" ry="7.376"/>
				<path id="XMLID_201_" style="fill:#FFFFFF;" d="M304.205,519.351c-5.608,0-10.155,10.552-10.155,23.568
					c0,13.016,4.546,23.568,10.155,23.568c5.608,0,10.154-10.552,10.154-23.568C314.359,529.903,309.813,519.351,304.205,519.351z
					 M303.373,564.05c-4.569,0-8.273-9.461-8.273-21.13c0-11.67,3.704-21.13,8.273-21.13s8.272,9.46,8.272,21.13
					C311.645,554.589,307.942,564.05,303.373,564.05z"/>
				<path id="XMLID_202_" style="fill:#FFFFFF;" d="M303.373,542.757c0,4.476,1.175,8.104,2.624,8.104
					c1.449,0,2.625-3.628,2.625-8.104c0-4.476-1.175-8.104-2.625-8.104C304.548,534.653,303.373,538.281,303.373,542.757z"/>
				<path id="XMLID_205_" style="fill:#FFFFFF;" d="M336.123,518.805c-6.4,0-11.588,12.042-11.588,26.895
					s5.188,26.895,11.588,26.895c6.4,0,11.588-12.041,11.588-26.895S342.523,518.805,336.123,518.805z M335.174,569.813
					c-5.213,0-9.44-10.796-9.44-24.113c0-13.317,4.227-24.113,9.44-24.113c5.214,0,9.44,10.795,9.44,24.113
					C344.614,559.018,340.388,569.813,335.174,569.813z"/>
				<path id="XMLID_206_" style="fill:#FFFFFF;" d="M335.174,545.515c0,5.107,1.341,9.248,2.995,9.248
					c1.654,0,2.995-4.141,2.995-9.248c0-5.108-1.341-9.248-2.995-9.248C336.515,536.267,335.174,540.407,335.174,545.515z"/>
				<path id="XMLID_207_" style="fill:#FFFFFF;" d="M374.93,556.054c1.889,0,3.421-4.73,3.421-10.566
					c0-5.835-1.532-10.565-3.421-10.565c-1.89,0-3.422,4.73-3.422,10.565C371.508,551.324,373.04,556.054,374.93,556.054z"/>
				<path id="XMLID_210_" style="fill:#FFFFFF;" d="M235.038,519.049l4.439-0.258v-13.605l122.615-5.781l-0.983-5.899l-121.632,8.74
					v-1.475l121.386-10.46l-1.475-12.289l-119.911,16.468v-77.176l-18.795,11.424l-0.038,0.004v39.94l13.641-4.588l-11.398,4.588
					h6.175v43.514l-11.245,0.881v6.974l11.008-0.64c-3.498,1.871-6.264,7.694-7.221,15.156c-1.205-8.611-4.913-12.051-6.026-12.898
					l0.396-0.02v-5.899l-43.273,3.484v4.606l6.208-0.314c-2.982,1.716-5.182,7.561-5.182,14.529c0,8.314,3.127,15.054,6.985,15.054
					h3.252c0,0,3.64-2.62,4.355-11.835c0.535,8.009,3.723,14.17,7.587,14.17h3.573c0,0,3.152-2.261,4.413-9.839
					c1.062,7.848,4.419,13.588,8.403,13.588h4.077c0,0,4.037-2.908,5.265-12.862c1.209,8.98,5.047,15.551,9.603,15.551h4.658
					c0,0,6.426-4.571,6.426-21.564C242.324,525.682,236.624,520.272,235.038,519.049z M180.14,551.55
					c-3.143,0-5.691-6.043-5.691-13.497c0-7.454,2.548-13.497,5.691-13.497s5.691,6.043,5.691,13.497
					C185.831,545.508,183.283,551.55,180.14,551.55z M183.472,523.293l10.799-0.547c-2.983,1.396-5.317,6.524-5.897,13.006
					C187.85,527.537,184.605,524.212,183.472,523.293z M195.278,553.732c-3.453,0-6.252-6.639-6.252-14.829
					c0-8.19,2.799-14.829,6.252-14.829c3.453,0,6.252,6.639,6.252,14.829C201.53,547.092,198.731,553.732,195.278,553.732z
					 M198.731,522.521l11.601-0.587c-2.91,1.438-5.26,5.994-6.263,11.955C202.996,526.175,199.633,523.188,198.731,522.521z
					 M211.577,557.239c-3.94,0-7.135-7.577-7.135-16.923c0-9.346,3.194-16.923,7.135-16.923c3.94,0,7.135,7.577,7.135,16.923
					C218.712,549.662,215.518,557.239,211.577,557.239z M222.119,453.074V430.32l15.238-8.829v25.051L222.119,453.074z
					 M230.421,559.649c-4.502,0-8.151-8.656-8.151-19.333c0-10.677,3.65-19.333,8.151-19.333c4.502,0,8.151,8.656,8.151,19.333
					C238.572,550.993,234.922,559.649,230.421,559.649z"/>
				<path id="XMLID_217_" style="fill:#FFFFFF;" d="M516.076,374.343c1.652,0,2.992-1.816,2.992-4.055
					c0-2.24-1.34-4.055-2.992-4.055c-1.653,0-2.992,1.816-2.992,4.055C513.084,372.528,514.424,374.343,516.076,374.343z"/>
				<path id="XMLID_218_" style="fill:#FFFFFF;" d="M549.257,392.971c1.653,0,2.992-1.816,2.992-4.055
					c0-2.24-1.34-4.055-2.992-4.055c-1.652,0-2.992,1.816-2.992,4.055C546.265,391.155,547.604,392.971,549.257,392.971z"/>
				<path id="XMLID_219_" style="fill:#FFFFFF;" d="M468.701,426.897c1.652,0,2.992-1.816,2.992-4.056
					c0-2.24-1.34-4.055-2.992-4.055s-2.992,1.816-2.992,4.055C465.709,425.081,467.049,426.897,468.701,426.897z"/>
				<path id="XMLID_220_" style="fill:#FFFFFF;" d="M483.105,391.577c1.652,0,2.992-1.816,2.992-4.055s-1.34-4.056-2.992-4.056
					c-1.653,0-2.992,1.816-2.992,4.056S481.452,391.577,483.105,391.577z"/>
			</g>
			<g id="XMLID_6_">
				<path id="XMLID_7_" style="fill:#FFFFFF;" d="M499.828,182.008c-1.186-3.527-3.131-7.367-6.214-10.768
					c-0.607-0.672-1.288-1.312-1.978-1.947c0.187,0.516,0.413,1.042,0.575,1.551c1.414,4.28,1.835,8.243,1.93,11.622
					c0.001,0.015,0.001,0.03,0.001,0.045c0.012,0.442,0.039,0.911,0.041,1.331c-0.02,0.914-0.038,1.779-0.056,2.593
					c-0.046,0.812-0.177,1.567-0.251,2.272c-0.088,0.795-0.182,1.502-0.288,2.154c-0.025,0.151-0.065,0.303-0.092,0.455
					c-0.061,0.322-0.115,0.667-0.193,0.947c-0.432,1.909-0.663,2.926-0.663,2.926s-0.321,0.993-0.923,2.855
					c-0.076,0.277-0.204,0.599-0.315,0.905c-0.056,0.148-0.1,0.302-0.156,0.449c-0.241,0.614-0.521,1.269-0.851,1.996
					c-0.296,0.645-0.569,1.361-0.944,2.083c-0.4,0.709-0.826,1.462-1.275,2.258c-0.214,0.357-0.474,0.742-0.707,1.113
					c-0.013,0.02-0.025,0.039-0.037,0.058c-1.806,2.855-4.188,6.044-7.585,9c-2.686,2.387-5.967,4.636-9.737,6.505
					c3.467,0.063,6.815-0.404,9.833-1.335c4.388-1.352,8.018-3.665,10.839-6.092c2.857-2.423,4.797-5.104,6.201-7.38
					c0.697-1.151,1.278-2.2,1.671-3.17c0.444-0.946,0.805-1.758,1.005-2.454c0.461-1.367,0.707-2.096,0.707-2.096
					s0.16-0.753,0.461-2.163c0.183-0.7,0.287-1.582,0.388-2.623c0.157-1.035,0.193-2.235,0.18-3.58
					C501.35,188.846,501.049,185.55,499.828,182.008z"/>
				<path id="XMLID_27_" style="fill:#FFFFFF;" d="M493.805,188.7c0.067-0.705,0.189-1.459,0.226-2.27
					c0.009-0.812,0.018-1.675,0.028-2.587c-0.054-3.628-0.454-8.103-2.102-12.916c-1.6-4.795-4.239-10.007-8.4-14.656
					c-4.139-4.624-9.738-8.703-16.293-11.266c-6.65-2.541-14.258-3.482-21.835-2.244c-0.667,0.103-1.327,0.253-1.987,0.396
					c0.484,1.101,0.916,2.194,1.254,3.261c1.202,3.66,1.461,7.045,1.466,9.782c-0.007,1.377-0.062,2.602-0.238,3.659
					c-0.119,1.062-0.238,1.961-0.435,2.673c-0.327,1.434-0.502,2.199-0.502,2.199s-0.24,0.747-0.691,2.147
					c-0.193,0.712-0.55,1.546-0.99,2.52c-0.184,0.473-0.417,0.967-0.678,1.48c-0.026-0.02-0.049-0.042-0.075-0.062
					c0.263-0.5,0.5-0.983,0.687-1.445c0.453-0.964,0.821-1.793,1.025-2.503c0.47-1.394,0.721-2.137,0.721-2.137
					s0.164-0.767,0.47-2.206c0.187-0.713,0.293-1.614,0.396-2.675c0.16-1.056,0.197-2.279,0.184-3.651
					c-0.045-2.727-0.352-6.088-1.596-9.7c-1.209-3.598-3.193-7.514-6.336-10.984c-3.119-3.454-7.339-6.493-12.243-8.384
					c-4.999-1.883-10.683-2.555-16.339-1.604c-5.647,0.968-11.147,3.567-15.651,7.485c-1.501,1.335-2.85,2.839-4.075,4.444
					c2.682,1.621,4.948,3.6,6.745,5.75c2.455,3.009,4.078,6.224,5.018,9.211c0.976,2.989,1.183,5.752,1.184,7.986
					c-0.008,1.124-0.054,2.123-0.199,2.985c-0.098,0.866-0.197,1.599-0.359,2.18c-0.269,1.169-0.413,1.793-0.413,1.793
					s-0.195,0.609-0.56,1.752c-0.026,0.094-0.074,0.208-0.106,0.307c1.696-1.195,3.473-2.25,5.34-3.086
					c2.806-1.157,5.691-2.034,8.612-2.392c2.159-0.285,4.315-0.332,6.423-0.178c-1.508,0.038-3.026,0.176-4.543,0.432
					c-5.843,1.005-11.532,3.698-16.192,7.751c-2.308,2.054-4.294,4.47-5.978,7.088c-1.637,2.673-2.786,5.486-3.702,8.563
					c-0.775,3.024-1.237,6.133-1.191,9.253c0.112,3.11,0.587,6.202,1.524,9.147c1.94,5.863,5.449,11.089,9.968,14.934
					c2.276,1.866,4.74,3.551,7.337,4.668c1.239,0.659,2.667,1.07,4.007,1.558c1.295,0.391,2.689,0.711,4.021,0.98
					c5.416,0.919,10.743,0.438,15.359-0.985c2.639-0.813,5.009-1.961,7.12-3.267c0.254,0.089,0.511,0.179,0.763,0.269
					c1.691,0.501,3.481,0.902,5.205,1.24c6.996,1.15,13.857,0.492,19.788-1.371c5.951-1.875,10.879-5.014,14.703-8.32
					c3.873-3.298,6.501-6.942,8.398-10.035c0.457-0.789,0.89-1.536,1.297-2.239c0.382-0.716,0.661-1.426,0.963-2.067
					c0.599-1.285,1.088-2.388,1.357-3.332c0.622-1.855,0.954-2.844,0.954-2.844s0.22-1.02,0.631-2.933
					C493.522,191.308,493.665,190.111,493.805,188.7z"/>
				<path id="XMLID_28_" style="fill:#FFFFFF;" d="M402.475,163.381c0.129-0.861,0.158-1.858,0.145-2.976
					c-0.041-2.223-0.295-4.962-1.314-7.903c-0.991-2.929-2.608-6.12-5.182-8.932c-2.549-2.8-5.998-5.259-9.98-6.774
					c-4.077-1.516-8.686-2.036-13.267-1.246c-4.573,0.808-9.013,2.929-12.654,6.1c-1.405,1.254-2.611,2.714-3.716,4.251
					c5.279,2.479,9.657,5.928,12.93,9.797c3.504,4.223,5.801,8.771,7.143,12.992c0.12,0.365,0.19,0.712,0.294,1.071
					c2.326-0.199,4.732-0.196,7.191,0.128c1.359,0.223,2.702,0.473,4.107,0.844c1.322,0.427,2.663,0.754,4.006,1.389
					c1.303,0.506,2.551,1.137,3.763,1.848c0.867-0.956,1.773-1.872,2.745-2.711c0.766-0.635,1.561-1.227,2.368-1.798
					c0.041-0.116,0.098-0.246,0.129-0.355c0.385-1.136,0.591-1.742,0.591-1.742s0.132-0.626,0.38-1.799
					C402.307,164.98,402.392,164.246,402.475,163.381z"/>
				<path id="XMLID_29_" style="fill:#FFFFFF;" d="M393.449,213.732c-1.762-2.48-3.12-5.268-4.167-8.189
					c-0.987-2.95-1.518-6.062-1.673-9.207c-0.094-3.155,0.322-6.313,1.069-9.391c0.891-2.953,2.182-5.971,3.869-8.624
					c0.728-1.099,1.522-2.148,2.357-3.159c-1.058-0.661-2.141-1.26-3.254-1.739c-1.198-0.636-2.576-1.032-3.871-1.503
					c-1.253-0.378-2.598-0.686-3.885-0.944c-5.233-0.885-10.378-0.417-14.835,0.96c-4.474,1.381-8.177,3.74-11.053,6.216
					c-2.562,2.174-4.393,4.545-5.771,6.665c-0.048-0.012-0.094-0.025-0.142-0.036c1.356-2.158,3.171-4.587,5.737-6.828
					c2.861-2.555,6.584-4.924,11.056-6.534c2.382-0.833,4.993-1.392,7.728-1.647c-0.103-0.337-0.172-0.661-0.289-1.002
					c-1.393-4.161-3.685-8.687-7.307-12.712c-3.599-4.005-8.468-7.533-14.149-9.741c-5.776-2.193-12.365-2.991-18.925-1.905
					c-6.552,1.102-12.944,4.105-18.175,8.651c-2.593,2.302-4.826,5.011-6.719,7.947c-1.849,3.023-3.124,6.11-4.185,9.669
					c-0.008,0.032-0.014,0.067-0.022,0.099c3.818,0.198,7.495,1.055,10.744,2.422c4.954,2.122,8.967,5.288,11.938,8.82
					c1.031,1.252,1.931,2.538,2.723,3.831c-0.127,0.046-0.259,0.085-0.385,0.133c-0.798-1.231-1.705-2.443-2.756-3.602
					c-3.029-3.35-7.127-6.299-11.886-8.13c-4.854-1.825-10.368-2.473-15.854-1.547c-5.478,0.942-10.81,3.466-15.178,7.266
					c-2.164,1.926-4.026,4.191-5.604,6.645c-1.534,2.506-2.611,5.143-3.47,8.027c-0.723,2.819-1.153,5.717-1.115,8.626
					c0.823-0.199,1.646-0.398,2.478-0.495c4.221-0.531,8.419,0.144,11.957,1.582c-3.398-0.994-7.104-1.262-10.79-0.615
					c-4.245,0.759-8.361,2.748-11.708,5.713c-1.653,1.508-3.086,3.254-4.313,5.141c-1.197,1.963-1.998,3.879-2.711,6.255
					c-0.518,2.065-0.875,4.407-0.828,6.635c0.095,2.249,0.428,4.484,1.082,6.624c0.509,1.586,1.225,3.08,2.034,4.515
					c0.45-0.24,0.886-0.512,1.351-0.714c1.798-0.717,3.641-1.252,5.5-1.457c3.701-0.444,7.383,0.204,10.412,1.524
					c0.505,0.224,0.966,0.489,1.438,0.744c-0.48-0.228-0.958-0.458-1.461-0.644c-2.876-1.038-6.084-1.362-9.267-0.781
					c-3.174,0.594-6.238,2.1-8.729,4.32c-1.227,1.132-2.292,2.436-3.206,3.844c-0.893,1.474-1.473,2.864-2.018,4.679
					c-0.38,1.513-0.655,3.276-0.621,4.932c0.071,1.676,0.313,3.343,0.793,4.943c1.01,3.181,2.871,6.045,5.303,8.174
					c1.222,1.031,2.564,1.976,3.96,2.599c0.659,0.366,1.459,0.609,2.198,0.889c0.689,0.219,1.464,0.409,2.188,0.565
					c2.965,0.544,5.902,0.322,8.461-0.431c2.57-0.753,4.71-2.082,6.38-3.484c1.699-1.394,2.835-2.975,3.656-4.311
					c0.824-1.345,1.292-2.505,1.568-3.301c0.27-0.802,0.414-1.23,0.414-1.23l0.002-0.008c0.828,0.456,1.678,0.884,2.584,1.224
					c3.402,1.247,7.225,1.658,11.021,0.985c3.788-0.685,7.457-2.465,10.44-5.111c1.472-1.347,2.749-2.904,3.843-4.587
					c1.067-1.754,1.776-3.451,2.416-5.582c0.46-1.834,0.781-3.927,0.739-5.913c-0.085-2.005-0.38-3.998-0.961-5.908
					c-1.217-3.799-3.458-7.207-6.371-9.728c-1.465-1.222-3.065-2.336-4.737-3.072c-0.793-0.433-1.736-0.714-2.613-1.041
					c-0.465-0.145-0.956-0.274-1.451-0.395c-0.092-0.302-0.16-0.597-0.27-0.904c-0.04-0.115-0.097-0.235-0.138-0.35
					c0.738,0.123,1.474,0.26,2.251,0.459c0.377,0.118,0.755,0.228,1.135,0.344c1.95,0.74,3.72,1.275,5.436,2.554
					c1.709,1.299,3.206,2.913,4.55,4.677c1.301,1.802,2.313,3.833,3.097,5.967c1.439,4.12,1.586,8.605,0.562,13.001
					c2.56,1.933,5.428,3.627,8.602,4.855c5.529,2.091,11.826,2.845,18.093,1.799c6.259-1.062,12.36-3.937,17.355-8.279
					c2.475-2.2,4.606-4.787,6.412-7.591c1.764-2.89,2.976-5.826,3.993-9.238c0.792-3.119,1.311-6.541,1.25-9.858
					c-0.122-3.334-0.634-6.647-1.641-9.802c-2.08-6.283-5.852-11.875-10.698-15.981c-0.957-0.781-1.951-1.515-2.965-2.212
					c1.41,0.835,2.775,1.775,4.109,2.789c2.57,1.991,4.81,4.454,6.817,7.136c1.941,2.741,3.44,5.819,4.593,9.045
					c1.088,3.257,1.67,6.692,1.84,10.164c0.094,3.509-0.342,6.907-1.205,10.422c-0.377,1.249-0.853,2.538-1.38,3.822
					c1.809,0.018,3.637-0.103,5.464-0.411c5.647-0.967,11.147-3.567,15.651-7.484c1.097-0.976,2.116-2.037,3.065-3.164
					c-0.944-0.601-1.873-1.238-2.781-1.925C397.304,218.385,395.271,216.158,393.449,213.732z"/>
			</g>
		</g>
	</g>
</g>
</svg>
